<?xml version="1.0" standalone="no"?>
<!DOCTYPE svg PUBLIC "-//W3C//DTD SVG 20010904//EN"
 "http://www.w3.org/TR/2001/REC-SVG-20010904/DTD/svg10.dtd">
<svg version="1.0" xmlns="http://www.w3.org/2000/svg"
 width="100.000000pt" height="100.000000pt" viewBox="0 0 100.000000 100.000000"
 preserveAspectRatio="xMidYMid meet">

<g transform="translate(0.000000,100.000000) scale(0.100000,-0.100000)"
fill="#000000" stroke="none">
<path d="M192 855 c-38 -17 -66 -71 -56 -110 19 -75 110 -100 165 -46 52 53
33 135 -38 162 -30 11 -31 11 -71 -6z"/>
<path d="M464 861 c-12 -5 -31 -22 -44 -38 -17 -22 -21 -36 -17 -68 16 -115
178 -115 194 1 4 35 1 46 -23 73 -31 33 -76 46 -110 32z"/>
<path d="M726 855 c-41 -22 -55 -44 -56 -88 -1 -114 166 -132 194 -22 10 40
-18 94 -58 110 -43 18 -44 18 -80 0z"/>
<path d="M169 572 c-28 -25 -34 -37 -34 -72 0 -35 6 -47 34 -72 29 -26 39 -30
75 -25 116 16 116 178 0 194 -36 5 -46 1 -75 -25z"/>
<path d="M451 586 c-87 -48 -50 -186 49 -186 51 0 100 49 100 99 0 75 -83 124
-149 87z"/>
<path d="M724 590 c-55 -22 -72 -108 -31 -155 14 -17 36 -28 63 -32 36 -5 46
-1 75 25 28 25 34 37 34 72 0 72 -72 118 -141 90z"/>
<path d="M167 305 c-34 -34 -40 -67 -23 -110 17 -41 71 -69 111 -59 43 11 75
52 75 96 0 85 -104 132 -163 73z"/>
<path d="M435 307 c-17 -14 -28 -36 -32 -63 -5 -36 -1 -46 25 -75 43 -48 101
-48 144 0 26 29 30 39 25 75 -7 54 -44 86 -97 86 -26 0 -48 -8 -65 -23z"/>
<path d="M699 301 c-77 -77 6 -199 106 -157 25 11 40 26 51 51 42 100 -80 183
-157 106z"/>
</g>
</svg>
